<?xml version="1.0" encoding="utf-8"?>
<!-- Generator: Adobe Illustrator 23.1.0, SVG Export Plug-In . SVG Version: 6.00 Build 0)  -->
<svg version="1.1" id="Layer_1" xmlns="http://www.w3.org/2000/svg" xmlns:xlink="http://www.w3.org/1999/xlink" x="0px" y="0px"
	 width="488.4px" height="94.5px" viewBox="0 0 488.4 94.5" style="enable-background:new 0 0 488.4 94.5;" xml:space="preserve">
<style type="text/css">
	.st0{fill:#585858;}
	.st1{fill:#43CEB1;}
</style>
<g>
	<g>
		<path class="st0" d="M35.8,25.5H21.3V18h38v7.5H44.8v42.8h-8.9V25.5z"/>
		<path class="st0" d="M66.9,30.5h7.3l0.7,6.7h0.2c2.7-4.9,6.7-7.7,10.7-7.7c1.9,0,3.1,0.2,4.3,0.8l-1.5,7.7
			c-1.3-0.4-2.3-0.6-3.9-0.6c-3,0-6.7,2.1-8.9,7.8v23.1h-8.9V30.5z"/>
		<path class="st0" d="M93.6,58.2c0-8.1,6.7-12.3,22.2-14c-0.1-4.1-1.8-7.5-6.9-7.5c-3.8,0-7.3,1.7-10.6,3.7l-3.3-5.9
			c4.2-2.6,9.5-5,15.5-5c9.5,0,14.1,5.8,14.1,16.4v22.4h-7.3l-0.7-4.2h-0.2c-3.4,2.9-7.3,5.1-11.7,5.1
			C98.2,69.3,93.6,64.8,93.6,58.2z M115.9,58.2v-8.5c-10.3,1.3-13.7,4-13.7,7.8c0,3.3,2.3,4.8,5.5,4.8
			C110.7,62.3,113.1,60.8,115.9,58.2z"/>
		<path class="st0" d="M132.9,49.5c0-12.6,8.9-19.9,19-19.9c4.8,0,8.3,1.8,11.1,4.3l-4.3,5.8c-2-1.8-3.9-2.8-6.3-2.8
			c-6.1,0-10.3,5.1-10.3,12.6c0,7.6,4.2,12.6,10,12.6c3,0,5.7-1.4,7.8-3.3l3.6,5.9c-3.5,3.1-8,4.7-12.4,4.7
			C140.8,69.3,132.9,62,132.9,49.5z"/>
		<path class="st0" d="M171,13.9h8.7v34h0.2l14-17.4h9.7l-13,15.4l14.3,22.4h-9.6l-9.7-16.4l-5.9,6.8v9.6H171V13.9z"/>
		<path class="st0" d="M211.9,18H222l8.9,24.6c1.1,3.2,2.1,6.6,3.2,9.9h0.3c1.1-3.3,2.1-6.7,3.2-9.9l8.7-24.6h10.1v50.4h-8.2v-23
			c0-4.7,0.7-11.3,1.1-16h-0.3L245,41l-8.3,22.6h-5.3L223.1,41l-4-11.7h-0.3c0.4,4.7,1.1,11.4,1.1,16v23h-8V18z"/>
		<path class="st0" d="M266.1,83.1l1.6-6.9c0.7,0.2,1.8,0.5,2.7,0.5c4,0,6.3-2.7,7.5-6.5l0.7-2.4l-14.9-37.4h9l6.5,18.5
			c1.1,3.4,2.2,7.1,3.3,10.7h0.3c1-3.5,1.9-7.2,2.9-10.7l5.6-18.5h8.6l-13.7,39.5c-3.1,8.5-7.1,13.8-15.4,13.8
			C269,83.9,267.5,83.5,266.1,83.1z"/>
		<path class="st1" d="M302.4,18h9.2l4.4,25.4c0.8,5.4,1.7,10.7,2.5,16.1h0.3c1-5.4,2.2-10.8,3.3-16.1l6.2-25.4h7.8l6.2,25.4
			c1.1,5.2,2.2,10.7,3.3,16.1h0.3c0.8-5.4,1.6-10.8,2.4-16.1l4.4-25.4h8.6l-9.7,50.4h-11.1l-6.3-26.5c-0.8-3.9-1.6-7.8-2.2-11.6
			h-0.3c-0.7,3.8-1.4,7.7-2.3,11.6l-6.1,26.5h-10.9L302.4,18z"/>
		<path class="st0" d="M365.7,49.5c0-12.6,8.6-19.9,18-19.9c9.4,0,18,7.3,18,19.9c0,12.5-8.6,19.8-18,19.8
			C374.3,69.3,365.7,62,365.7,49.5z M392.6,49.5c0-7.6-3.3-12.6-8.9-12.6c-5.5,0-8.9,5.1-8.9,12.6c0,7.6,3.3,12.6,8.9,12.6
			C389.3,62,392.6,57,392.6,49.5z"/>
		<path class="st0" d="M410.5,30.5h7.3l0.7,6.7h0.2c2.7-4.9,6.7-7.7,10.7-7.7c1.9,0,3.1,0.2,4.3,0.8l-1.5,7.7
			c-1.3-0.4-2.3-0.6-3.9-0.6c-3,0-6.7,2.1-8.9,7.8v23.1h-8.9V30.5z"/>
		<path class="st0" d="M439.2,13.9h8.7v34h0.2l14-17.4h9.7l-13,15.4l14.3,22.4h-9.6l-9.7-16.4l-5.9,6.8v9.6h-8.7V13.9z"/>
	</g>
</g>
</svg>
